<svg width="22" height="20" viewBox="0 0 22 20" fill="none" xmlns="http://www.w3.org/2000/svg">
<path d="M19.0113 14.2105C19.7958 13.6677 20.3874 12.8896 20.7009 11.9886C21.0143 11.0876 21.0333 10.1103 20.7551 9.19779C20.4769 8.2853 19.9159 7.48482 19.1531 6.91193C18.3903 6.33904 17.4652 6.02338 16.5113 6.01052H14.7113C14.409 4.99079 13.8784 4.05336 13.1596 3.26941C12.4408 2.48545 11.5529 1.8756 10.5632 1.48615C9.57343 1.0967 8.50799 0.937908 7.44772 1.02182C6.38745 1.10574 5.36024 1.43015 4.44411 1.97044C3.52797 2.51072 2.747 3.25267 2.1605 4.13993C1.57399 5.02718 1.19739 6.03643 1.05927 7.091C0.921158 8.14558 1.02517 9.21777 1.36341 10.2261C1.70165 11.2345 2.26522 12.1525 3.01133 12.9105" stroke="white" stroke-width="1.5" stroke-linecap="round" stroke-linejoin="round"/>
<path d="M11.0117 10.0107V19.0107" stroke="white" stroke-width="1.5" stroke-linecap="round" stroke-linejoin="round"/>
<path d="M7.01172 15.0107L11.0117 19.0107L15.0117 15.0107" stroke="white" stroke-width="1.5" stroke-linecap="round" stroke-linejoin="round"/>
</svg>
